<svg viewBox="0 0 1000 336" xmlns="http://www.w3.org/2000/svg" role="img" aria-label="System map: memvet and its Homebrew tap; nim-gke and nimble-oke, the same NVIDIA NIM kit on two clouds; venture-signal, a decision lab.">
<style>.mono{font-family:"IBM Plex Mono", ui-monospace, "SFMono-Regular", "SF Mono", Menlo, Consolas, monospace} .sans{font-family:"Avenir Next", Inter, "IBM Plex Sans", "Helvetica Neue", Arial, sans-serif} .f{opacity:0;animation:f .7s ease forwards} @keyframes f{to{opacity:1}} .d1{animation-delay:.15s} .d2{animation-delay:.3s} .d3{animation-delay:.45s} @media (prefers-reduced-motion: reduce){.f{animation:none;opacity:1}}</style>
<rect width="1000" height="336" rx="6" fill="#0E1C2B"/>
<text x="48" y="68" font-size="44" fill="#2D4152" class="mono">02</text>
<text x="122" y="58" font-size="13" fill="#8CBFD3" class="mono" letter-spacing="5">SYSTEM MAP</text>
<text x="952" y="58" font-size="11" fill="#A8A296" class="mono" text-anchor="end" letter-spacing="2">~/02-system-map</text>
<line x1="48" y1="86" x2="952" y2="86" stroke="#2D4152"/>
<rect x="48" y="112" width="4" height="12" fill="#D3AA55"/>
<text x="60" y="123" font-size="11" fill="#D3AA55" class="mono" letter-spacing="2.5">AGENT STATE INTEGRITY</text>
<rect x="360" y="112" width="4" height="12" fill="#8CBFD3"/>
<text x="372" y="123" font-size="11" fill="#8CBFD3" class="mono" letter-spacing="2.5">GPU INFERENCE KITS</text>
<rect x="672" y="112" width="4" height="12" fill="#B7C9B3"/>
<text x="684" y="123" font-size="11" fill="#B7C9B3" class="mono" letter-spacing="2.5">DECISION TOOLS</text>
<rect x="48" y="140" width="280" height="62" rx="4" fill="#19293B" stroke="#2D4152"/>
<text x="64" y="167" font-size="15" fill="#E8E2D6" class="mono">memvet</text>
<text x="64" y="187" font-size="11.5" fill="#A8A296" class="mono">integrity checks for agent memory</text>
<line x1="72" y1="202" x2="72" y2="246" stroke="#A8A296" stroke-dasharray="3 4"/>
<text x="84" y="228.0" font-size="11" fill="#A8A296" class="mono">installed by</text>
<rect x="48" y="246" width="280" height="62" rx="4" fill="#19293B" stroke="#2D4152"/>
<text x="64" y="273" font-size="15" fill="#E8E2D6" class="mono">homebrew-tap</text>
<text x="64" y="293" font-size="11.5" fill="#A8A296" class="mono">brew install frankbesch/tap/memvet</text>
<rect x="360" y="140" width="280" height="62" rx="4" fill="#19293B" stroke="#2D4152"/>
<text x="376" y="167" font-size="15" fill="#E8E2D6" class="mono">nim-gke</text>
<text x="376" y="187" font-size="11.5" fill="#A8A296" class="mono">NVIDIA NIM on GKE · one L4</text>
<line x1="384" y1="202" x2="384" y2="246" stroke="#A8A296" stroke-dasharray="3 4"/>
<text x="396" y="228.0" font-size="11" fill="#A8A296" class="mono">same kit, second cloud</text>
<rect x="360" y="246" width="280" height="62" rx="4" fill="#19293B" stroke="#2D4152"/>
<text x="376" y="273" font-size="15" fill="#E8E2D6" class="mono">nimble-oke</text>
<text x="376" y="293" font-size="11.5" fill="#A8A296" class="mono">NVIDIA NIM on OKE · one A10</text>
<rect x="672" y="140" width="280" height="62" rx="4" fill="#19293B" stroke="#2D4152"/>
<text x="688" y="167" font-size="15" fill="#E8E2D6" class="mono">venture-signal</text>
<text x="688" y="187" font-size="11.5" fill="#A8A296" class="mono">pressure-tests business ideas</text>
</svg>
